REM DIRINDEX 1\3,1\2\4,1\2\5,1\2\6
REM DIRNAME cjc137,folder01,folder02,folder03,folder04,folder05
TITLE ""
FILE "148.mp3" MP3
  TRACK 01 AUDIO
    TITLE "4:cjc137_6505"
    INDEX 01 00:00:00
  TRACK 02 AUDIO
    TITLE "0:"
    INDEX 01 00:01:09
  TRACK 03 AUDIO
    TITLE "6:cjc137_6506"
    INDEX 01 00:01:17
  TRACK 04 AUDIO
    TITLE "0:"
    INDEX 01 00:02:20
  TRACK 05 AUDIO
    TITLE "5:cjc137_6507"
    INDEX 01 00:02:26
  TRACK 06 AUDIO
    TITLE "0:"
    INDEX 01 00:03:33
  TRACK 07 AUDIO
    TITLE "4:cjc137_6508"
    INDEX 01 00:04:44
  TRACK 08 AUDIO
    TITLE "0:"
    INDEX 01 00:05:67
  TRACK 09 AUDIO
    TITLE "6:cjc137_6509"
    INDEX 01 00:05:71
  TRACK 10 AUDIO
    TITLE "0:"
    INDEX 01 00:07:23
  TRACK 11 AUDIO
    TITLE "5:cjc137_6510"
    INDEX 01 00:07:29
  TRACK 12 AUDIO
    TITLE "0:"
    INDEX 01 00:08:52
  TRACK 13 AUDIO
    TITLE "4:cjc137_6511"
    INDEX 01 00:09:57
  TRACK 14 AUDIO
    TITLE "0:"
    INDEX 01 00:10:68
  TRACK 15 AUDIO
    TITLE "6:cjc137_6512"
    INDEX 01 00:10:72
  TRACK 16 AUDIO
    TITLE "0:"
    INDEX 01 00:12:30
  TRACK 17 AUDIO
    TITLE "5:cjc137_6513"
    INDEX 01 00:12:36
  TRACK 18 AUDIO
    TITLE "0:"
    INDEX 01 00:13:45
  TRACK 19 AUDIO
    TITLE "4:cjc137_6514"
    INDEX 01 00:14:53
  TRACK 20 AUDIO
    TITLE "0:"
    INDEX 01 00:15:66
  TRACK 21 AUDIO
    TITLE "6:cjc137_6515"
    INDEX 01 00:16:00
  TRACK 22 AUDIO
    TITLE "0:"
    INDEX 01 00:17:47
  TRACK 23 AUDIO
    TITLE "5:cjc137_6516"
    INDEX 01 00:17:51
  TRACK 24 AUDIO
    TITLE "0:"
    INDEX 01 00:18:68
  TRACK 25 AUDIO
    TITLE "4:cjc137_6517"
    INDEX 01 00:20:02
  TRACK 26 AUDIO
    TITLE "0:"
    INDEX 01 00:21:27
  TRACK 27 AUDIO
    TITLE "6:cjc137_6518"
    INDEX 01 00:21:31
  TRACK 28 AUDIO
    TITLE "0:"
    INDEX 01 00:22:46
  TRACK 29 AUDIO
    TITLE "5:cjc137_6519"
    INDEX 01 00:22:52
  TRACK 30 AUDIO
    TITLE "0:"
    INDEX 01 00:24:02
  TRACK 31 AUDIO
    TITLE "4:cjc137_6520"
    INDEX 01 00:25:11
  TRACK 32 AUDIO
    TITLE "0:"
    INDEX 01 00:26:15
  TRACK 33 AUDIO
    TITLE "6:cjc137_6521"
    INDEX 01 00:26:22
  TRACK 34 AUDIO
    TITLE "0:"
    INDEX 01 00:27:24
  TRACK 35 AUDIO
    TITLE "5:cjc137_6522"
    INDEX 01 00:27:30
  TRACK 36 AUDIO
    TITLE "0:"
    INDEX 01 00:28:37
  TRACK 37 AUDIO
    TITLE "4:cjc137_6523"
    INDEX 01 00:29:44
  TRACK 38 AUDIO
    TITLE "0:"
    INDEX 01 00:30:57
  TRACK 39 AUDIO
    TITLE "6:cjc137_6524"
    INDEX 01 00:30:67
  TRACK 40 AUDIO
    TITLE "0:"
    INDEX 01 00:32:19
  TRACK 41 AUDIO
    TITLE "5:cjc137_6525"
    INDEX 01 00:32:25
  TRACK 42 AUDIO
    TITLE "0:"
    INDEX 01 00:33:38
  TRACK 43 AUDIO
    TITLE "4:cjc137_6526"
    INDEX 01 00:34:43
  TRACK 44 AUDIO
    TITLE "0:"
    INDEX 01 00:35:72
  TRACK 45 AUDIO
    TITLE "6:cjc137_6527"
    INDEX 01 00:36:03
  TRACK 46 AUDIO
    TITLE "0:"
    INDEX 01 00:37:05
  TRACK 47 AUDIO
    TITLE "5:cjc137_6528"
    INDEX 01 00:37:10
  TRACK 48 AUDIO
    TITLE "0:"
    INDEX 01 00:38:39
  TRACK 49 AUDIO
    TITLE "4:cjc137_6529"
    INDEX 01 00:39:47
  TRACK 50 AUDIO
    TITLE "0:"
    INDEX 01 00:41:36
  TRACK 51 AUDIO
    TITLE "6:cjc137_6530"
    INDEX 01 00:41:44
  TRACK 52 AUDIO
    TITLE "0:"
    INDEX 01 00:43:05
  TRACK 53 AUDIO
    TITLE "5:cjc137_6531"
    INDEX 01 00:43:09
  TRACK 54 AUDIO
    TITLE "0:"
    INDEX 01 00:45:00
  TRACK 55 AUDIO
    TITLE "4:cjc137_6532"
    INDEX 01 00:46:07
  TRACK 56 AUDIO
    TITLE "0:"
    INDEX 01 00:47:30
  TRACK 57 AUDIO
    TITLE "6:cjc137_6533"
    INDEX 01 00:47:34
  TRACK 58 AUDIO
    TITLE "0:"
    INDEX 01 00:48:38
  TRACK 59 AUDIO
    TITLE "5:cjc137_6534"
    INDEX 01 00:48:44
  TRACK 60 AUDIO
    TITLE "0:"
    INDEX 01 00:49:65
  TRACK 61 AUDIO
    TITLE "4:cjc137_6535"
    INDEX 01 00:50:74
  TRACK 62 AUDIO
    TITLE "0:"
    INDEX 01 00:52:06
  TRACK 63 AUDIO
    TITLE "6:cjc137_6536"
    INDEX 01 00:52:14
  TRACK 64 AUDIO
    TITLE "0:"
    INDEX 01 00:53:21
  TRACK 65 AUDIO
    TITLE "5:cjc137_6537"
    INDEX 01 00:53:29
  TRACK 66 AUDIO
    TITLE "0:"
    INDEX 01 00:54:36
  TRACK 67 AUDIO
    TITLE "4:cjc137_6538"
    INDEX 01 00:55:46
  TRACK 68 AUDIO
    TITLE "0:"
    INDEX 01 00:56:63
  TRACK 69 AUDIO
    TITLE "6:cjc137_6539"
    INDEX 01 00:56:69
  TRACK 70 AUDIO
    TITLE "0:"
    INDEX 01 00:57:68
  TRACK 71 AUDIO
    TITLE "5:cjc137_6540"
    INDEX 01 00:57:72
  TRACK 72 AUDIO
    TITLE "0:"
    INDEX 01 00:59:18
  TRACK 73 AUDIO
    TITLE "4:cjc137_6541"
    INDEX 01 01:00:23
  TRACK 74 AUDIO
    TITLE "0:"
    INDEX 01 01:01:34
  TRACK 75 AUDIO
    TITLE "6:cjc137_6542"
    INDEX 01 01:01:40
  TRACK 76 AUDIO
    TITLE "0:"
    INDEX 01 01:03:12
  TRACK 77 AUDIO
    TITLE "5:cjc137_6543"
    INDEX 01 01:03:16
  TRACK 78 AUDIO
    TITLE "0:"
    INDEX 01 01:04:29
  TRACK 79 AUDIO
    TITLE "4:cjc137_6544"
    INDEX 01 01:05:36
  TRACK 80 AUDIO
    TITLE "0:"
    INDEX 01 01:06:59
  TRACK 81 AUDIO
    TITLE "6:cjc137_6545"
    INDEX 01 01:06:63
  TRACK 82 AUDIO
    TITLE "0:"
    INDEX 01 01:07:53
  TRACK 83 AUDIO
    TITLE "5:cjc137_6546"
    INDEX 01 01:07:57
  TRACK 84 AUDIO
    TITLE "0:"
    INDEX 01 01:09:03
  TRACK 85 AUDIO
    TITLE "4:cjc137_6547"
    INDEX 01 01:10:12
  TRACK 86 AUDIO
    TITLE "0:"
    INDEX 01 01:11:25
  TRACK 87 AUDIO
    TITLE "6:cjc137_6548"
    INDEX 01 01:11:27
  TRACK 88 AUDIO
    TITLE "0:"
    INDEX 01 01:12:48
  TRACK 89 AUDIO
    TITLE "5:cjc137_6549"
    INDEX 01 01:12:56
  TRACK 90 AUDIO
    TITLE "0:"
    INDEX 01 01:13:69
  TRACK 91 AUDIO
    TITLE "4:cjc137_6550"
    INDEX 01 01:14:74
  TRACK 92 AUDIO
    TITLE "0:"
    INDEX 01 01:16:20
  TRACK 93 AUDIO
    TITLE "6:cjc137_6551"
    INDEX 01 01:16:26
  TRACK 94 AUDIO
    TITLE "0:"
    INDEX 01 01:17:57
  TRACK 95 AUDIO
    TITLE "5:cjc137_6552"
    INDEX 01 01:17:61
  TRACK 96 AUDIO
    TITLE "0:"
    INDEX 01 01:19:07
  TRACK 97 AUDIO
    TITLE "4:cjc137_6553"
    INDEX 01 01:20:16
  TRACK 98 AUDIO
    TITLE "0:"
    INDEX 01 01:21:59
  TRACK 99 AUDIO
    TITLE "6:cjc137_6554"
    INDEX 01 01:21:63
  TRACK 100 AUDIO
    TITLE "0:"
    INDEX 01 01:22:74
  TRACK 101 AUDIO
    TITLE "5:cjc137_6555"
    INDEX 01 01:23:03
  TRACK 102 AUDIO
    TITLE "0:"
    INDEX 01 01:24:45
  TRACK 103 AUDIO
    TITLE "4:cjc137_6556"
    INDEX 01 01:25:53
  TRACK 104 AUDIO
    TITLE "0:"
    INDEX 01 01:26:64
  TRACK 105 AUDIO
    TITLE "6:cjc137_6557"
    INDEX 01 01:27:01
  TRACK 106 AUDIO
    TITLE "0:"
    INDEX 01 01:28:35
  TRACK 107 AUDIO
    TITLE "5:cjc137_6558"
    INDEX 01 01:28:41
  TRACK 108 AUDIO
    TITLE "0:"
    INDEX 01 01:29:52
  TRACK 109 AUDIO
    TITLE "4:cjc137_6559"
    INDEX 01 01:30:64
  TRACK 110 AUDIO
    TITLE "0:"
    INDEX 01 01:31:67
  TRACK 111 AUDIO
    TITLE "6:cjc137_6560"
    INDEX 01 01:32:04
  TRACK 112 AUDIO
    TITLE "0:"
    INDEX 01 01:33:09
  TRACK 113 AUDIO
    TITLE "5:cjc137_6561"
    INDEX 01 01:33:15
  TRACK 114 AUDIO
    TITLE "0:"
    INDEX 01 01:34:18
  TRACK 115 AUDIO
    TITLE "4:cjc137_6562"
    INDEX 01 01:35:33
  TRACK 116 AUDIO
    TITLE "0:"
    INDEX 01 01:36:54
  TRACK 117 AUDIO
    TITLE "6:cjc137_6563"
    INDEX 01 01:36:62
  TRACK 118 AUDIO
    TITLE "0:"
    INDEX 01 01:38:14
  TRACK 119 AUDIO
    TITLE "5:cjc137_6564"
    INDEX 01 01:38:20
  TRACK 120 AUDIO
    TITLE "0:"
    INDEX 01 01:39:41
